<svg width="60" height="60" viewBox="0 0 60 60" fill="none" xmlns="http://www.w3.org/2000/svg">
<path d="M3.75 3.75H56.25V56.25H3.75V3.75ZM10.5169 10.1888C10.5169 22.8463 10.5169 35.5044 10.5169 48.1631H17.04C17.04 42.6544 17.04 37.145 17.04 31.635C18.625 37.145 20.21 42.6544 21.795 48.1631C23.9662 48.1631 26.1375 48.1631 28.3088 48.1631C28.3088 35.5056 28.3088 22.8475 28.3088 10.1888C26.1187 10.1888 23.9287 10.1888 21.7463 10.1888C21.7463 15.3619 21.7463 20.535 21.7463 25.71C20.1637 20.535 18.5769 15.3612 16.9856 10.1888C14.8294 10.1888 12.6731 10.1888 10.5169 10.1888ZM42.87 19.1888C42.87 26.6513 42.87 34.1138 42.87 41.5762H38.13C38.13 39.2794 38.13 36.9825 38.13 34.6856C35.9363 35.1994 33.7388 35.7019 31.5431 36.2119C31.5431 38.5169 31.5431 40.8219 31.5431 43.1269C31.5002 43.8177 31.5487 44.5112 31.6875 45.1894C31.9419 46.1175 32.5147 46.9266 33.3056 47.475C33.9622 47.9309 34.7432 48.1738 35.5425 48.1706C38.5187 48.1706 41.4956 48.1706 44.4731 48.1706C45.1518 48.2113 45.8329 48.1609 46.4981 48.0206C47.4629 47.7405 48.2935 47.1204 48.8363 46.275C49.2685 45.5995 49.4879 44.8098 49.4663 44.0081C49.4663 35.7369 49.4663 27.4656 49.4663 19.1944L42.87 19.1888Z" fill="black"/>
</svg>
