<svg width="60" height="60" viewBox="0 0 60 60" fill="none" xmlns="http://www.w3.org/2000/svg">
<path d="M30 0.742554C13.425 0.742554 0 14.1751 0 30.7426C0 44.0001 8.595 55.2425 20.5125 59.205C22.0125 59.4875 22.5625 58.5601 22.5625 57.7626C22.5625 57.05 22.5375 55.1626 22.525 52.6626C14.18 54.4726 12.42 48.6376 12.42 48.6376C11.055 45.1751 9.0825 44.2501 9.0825 44.2501C6.365 42.3901 9.2925 42.4276 9.2925 42.4276C12.305 42.6376 13.8875 45.5176 13.8875 45.5176C16.5625 50.1051 20.91 48.7801 22.625 48.0126C22.895 46.0726 23.6675 44.7501 24.525 44.0001C17.8625 43.2501 10.86 40.6701 10.86 29.1751C10.86 25.9001 12.0225 23.2251 13.9475 21.1251C13.61 20.3676 12.5975 17.3176 14.21 13.1851C14.21 13.1851 16.7225 12.3801 22.46 16.2601C24.86 15.5926 27.41 15.2626 29.96 15.2476C32.51 15.2626 35.06 15.5926 37.46 16.2601C43.16 12.3801 45.6725 13.1851 45.6725 13.1851C47.285 17.3176 46.2725 20.3676 45.9725 21.1251C47.885 23.2251 49.0475 25.9001 49.0475 29.1751C49.0475 40.7001 42.035 43.2376 35.36 43.9751C36.41 44.8751 37.385 46.715 37.385 49.5251C37.385 53.5401 37.3475 56.7651 37.3475 57.7401C37.3475 58.5276 37.8725 59.4651 39.41 59.1651C51.4125 55.2301 60 43.9801 60 30.7426C60 14.1751 46.5675 0.742554 30 0.742554Z" fill="black"/>
</svg>
