<svg width="60" height="60" viewBox="0 0 60 60" fill="none" xmlns="http://www.w3.org/2000/svg">
<path d="M0 0V60H60V0H0ZM44.7225 7.2225C48.3325 7.2225 51.39 8.3325 53.89 10.4175L51.1125 14.585C48.89 13.0575 46.8075 12.085 44.7225 12.085C42.6375 12.085 41.5275 13.0575 41.5275 14.3075V14.4475C41.5275 16.115 42.6375 16.67 46.805 17.78C51.805 19.17 54.5825 20.975 54.5825 25.28V25.42C54.5825 30.42 50.8325 33.1975 45.555 33.1975C41.805 33.0575 38.055 31.67 35.1375 29.03L38.3325 25.14C40.555 26.945 42.915 28.195 45.6925 28.195C47.915 28.195 49.165 27.3625 49.165 25.835V25.695C49.165 24.305 48.3325 23.6125 44.165 22.5C39.165 21.25 36.11 19.86 36.11 14.86V14.72C36.11 10.1375 39.72 7.22 44.72 7.22L44.7225 7.2225ZM4.445 7.7775H10.14L13.89 22.2225L18.195 7.7775H22.3625L26.53 22.2225L30.28 7.7775H36.1125L29.03 32.6375H24.3075L20.28 18.1925L16.1125 32.6375H11.53L4.4475 7.7775H4.445ZM5.695 48.75H28.195V52.5H5.695V48.75Z" fill="black"/>
</svg>
