<svg width="60" height="60" viewBox="0 0 60 60" fill="none" xmlns="http://www.w3.org/2000/svg">
<path d="M0 0V60H60V0H0ZM9.3075 7.7775H21.8075V12.3625H18.3325V28.055H21.8075V32.64H9.3075V28.055H12.9175V12.3625H9.3075V7.7775ZM36.945 7.7775H42.5V24.0275C42.5 25.5575 42.3625 26.805 41.945 27.9175C41.5275 29.0275 40.97 29.86 40.1375 30.6925C39.445 31.39 38.4725 32.085 37.3625 32.3625C36.2128 32.8194 34.9872 33.0552 33.75 33.0575C31.805 33.0575 30.14 32.64 28.89 31.945C27.6793 31.2568 26.5974 30.3635 25.6925 29.305L29.1675 25.4175C29.86 26.2525 30.555 26.805 31.25 27.2225C31.9425 27.64 32.7775 27.9175 33.6125 27.9175C34.585 27.9175 35.415 27.64 36.1125 26.945C36.665 26.25 36.945 25.2775 36.945 23.75V7.7775ZM5.555 48.75H28.055V52.5H5.555V48.75Z" fill="black"/>
</svg>
