<svg width="60" height="60" viewBox="0 0 60 60" fill="none" xmlns="http://www.w3.org/2000/svg">
<path d="M30 0L4.01245 15V45L30 60L55.9875 45V15L30 0ZM45 41.475C45 43.2375 43.385 44.7 41.1775 44.7C39.6 44.7 37.8 44.0625 36.675 42.675L21.675 24.8225V41.4725C21.675 43.275 20.25 44.6975 18.49 44.6975H18.3C16.4975 44.6975 15.075 43.1975 15.075 41.4725V18.525C15.075 16.7625 16.65 15.3 18.825 15.3C20.44 15.3 22.275 15.9375 23.4 17.325L38.325 35.1775V18.525C38.325 16.7225 39.825 15.3 41.55 15.3H41.7374C43.5375 15.3 44.9625 16.8 44.9625 18.525V41.475H45Z" fill="black"/>
</svg>
